<?xml version="1.0" encoding="utf-8"?>
<!-- Generator: Adobe Illustrator 22.0.0, SVG Export Plug-In . SVG Version: 6.00 Build 0)  -->
<svg version="1.1" id="Layer_1" xmlns="http://www.w3.org/2000/svg" xmlns:xlink="http://www.w3.org/1999/xlink" x="0px" y="0px"
	 viewBox="0 0 571.4 580.5" style="enable-background:new 0 0 571.4 580.5;" xml:space="preserve">
<style type="text/css">
	.st0{fill:url(#rect3713_1_);stroke:#2E3436;stroke-width:8.9443;}
	.st1{opacity:0.2571;enable-background:new    ;}
	.st2{fill:#2E3436;}
	.st3{fill:#F57900;stroke:#2E3436;stroke-width:8;}
	.st4{fill:url(#path2833_1_);}
	.st5{fill:#EEEEEC;}
	.st6{fill:url(#path3615_1_);}
	.st7{fill:url(#path3685_1_);}
	.st8{fill:url(#path3703_1_);}
	.st9{opacity:0.2612;fill:url(#path3783_1_);enable-background:new    ;}
</style>
<g>
	<title>Layer 1</title>
	<g id="layer1">
		
			<linearGradient id="rect3713_1_" gradientUnits="userSpaceOnUse" x1="-225.9846" y1="0.16" x2="-225.1153" y2="1.0513" gradientTransform="matrix(-239.652 -115.9875 -239.652 115.9875 -53672.4102 -25824.4531)">
			<stop  offset="0" style="stop-color:#CE5C00"/>
			<stop  offset="0.4995" style="stop-color:#F57900"/>
			<stop  offset="1" style="stop-color:#FCAF3E"/>
		</linearGradient>
		<path id="rect3713" class="st0" d="M462.7,419.4L275.5,510c-14.5,7-37.9,7-52.4,0L35.9,419.4c-14.5-7-14.5-18.4,0-25.4l187.2-90.6
			c14.5-7,37.9-7,52.4,0L462.7,394C477.2,401,477.2,412.4,462.7,419.4z"/>
		<g id="path3760" class="st1">
			<polygon class="st2" points="350.6,341.9 453.4,403.5 384.1,450.8 235.7,451.8 			"/>
		</g>
		<g id="g3762">
			<path id="path2816" class="st3" d="M239.5,75.4c-14.6,0-26.3,7-26.3,15.8c0,0.4,0,0.7,0.1,1.1l-95.7,288.1l0.2,0.2
				c3.3,38.5,56.6,69.1,121.8,69.1s118.5-30.6,121.8-69.1l0.1-0.2L265.8,92.3c0-0.4,0.1-0.7,0.1-1.1
				C265.9,82.4,254.1,75.4,239.5,75.4L239.5,75.4z"/>
			
				<linearGradient id="path2833_1_" gradientUnits="userSpaceOnUse" x1="-225.5" y1="1.4608" x2="-224.2596" y2="1.4608" gradientTransform="matrix(-31.2331 0 0 18.6848 -6803.168 64.2046)">
				<stop  offset="0" style="stop-color:#2E3436"/>
				<stop  offset="1" style="stop-color:#2E3436;stop-opacity:0"/>
			</linearGradient>
			<path id="path2833" class="st4" d="M239.9,82.2c8.6,0,15.6,4.2,15.6,9.3s-7,9.3-15.6,9.3s-15.6-4.2-15.6-9.3
				S231.3,82.2,239.9,82.2z"/>
			<path id="path3681" class="st5" d="M136.1,342.9c21.6,20.6,59.8,34.3,103.4,34.3c44.6,0,83.6-14.3,104.9-35.7l-14.8-44.1
				c-22.3,14.6-54.4,23.8-90.1,23.8c-35.1,0-66.7-8.9-89-23"/>
			<path id="path3666" class="st5" d="M167.4,245.8c20.2,8.9,45.1,17.5,72.1,17.5c27.2,0,52.4-8.7,72.7-17.8l-16.6-49.9
				c-16.8,5.2-35.9,11.6-56.1,11.6s-39.3-6.3-56-11.5"/>
			
				<linearGradient id="path3615_1_" gradientUnits="userSpaceOnUse" x1="-225.0035" y1="0.506" x2="-225.7606" y2="0.5607" gradientTransform="matrix(-105.5582 0 0 326.0075 -23627.1816 87.6413)">
				<stop  offset="0" style="stop-color:#EEEEEC"/>
				<stop  offset="1" style="stop-color:#EEEEEC;stop-opacity:0"/>
			</linearGradient>
			<path id="path3615" class="st6" d="M215.7,105.6c-0.9,1.7-88.4,276.6-91.9,276.6s23.4,40.9,51.6,49.4L229,109.9L215.7,105.6
				L215.7,105.6z"/>
			
				<linearGradient id="path3685_1_" gradientUnits="userSpaceOnUse" x1="-226.0003" y1="0.9283" x2="-225.0008" y2="0.9283" gradientTransform="matrix(-18.0083 0 0 42.0758 -3859.8821 187.5917)">
				<stop  offset="0" style="stop-color:#FFFFFF"/>
				<stop  offset="1" style="stop-color:#FFFFFF;stop-opacity:0"/>
			</linearGradient>
			<path id="path3685" class="st7" d="M192,205.6v38.5l10.6,3.6L210,208L192,205.6z"/>
			
				<linearGradient id="path3703_1_" gradientUnits="userSpaceOnUse" x1="-226" y1="0.8747" x2="-225.3829" y2="0.8747" gradientTransform="matrix(-29.1858 0 0 48.0866 -6410.8418 295.7874)">
				<stop  offset="0" style="stop-color:#FFFFFF"/>
				<stop  offset="1" style="stop-color:#FFFFFF;stop-opacity:0"/>
			</linearGradient>
			<path id="path3703" class="st8" d="M156,313.8l11.2,44.5l10.6,3.6l7.5-39.7L156,313.8z"/>
		</g>
		
			<linearGradient id="path3783_1_" gradientUnits="userSpaceOnUse" x1="-225.0318" y1="0.3312" x2="-225.5168" y2="0.6816" gradientTransform="matrix(-201.2767 0 0 106.3778 -45259.1562 383.7476)">
			<stop  offset="0" style="stop-color:#F6F6F5"/>
			<stop  offset="1" style="stop-color:#F6F6F5;stop-opacity:0"/>
		</linearGradient>
		<path id="path3783" class="st9" d="M34.4,416.6c0,0,186.1,90.9,191.1,91.5s3.7-15.6,3.7-15.6L32.1,401.8
			C27.1,402.4,25.7,409.8,34.4,416.6z"/>
	</g>
</g>
</svg>
